<svg width="20" height="21" viewBox="0 0 20 21" fill="none" xmlns="http://www.w3.org/2000/svg">
<path d="M19.3722 8.21783H18.6149V8.17636H10.1545V12.1734H15.4672C14.6921 14.5001 12.6094 16.1704 10.1545 16.1704C7.03958 16.1704 4.51412 13.4859 4.51412 10.1749C4.51412 6.86385 7.03958 4.17937 10.1545 4.17937C11.5923 4.17937 12.9004 4.75593 13.8963 5.69773L16.5553 2.87135C14.8763 1.2081 12.6306 0.182373 10.1545 0.182373C4.963 0.182373 0.753906 4.65651 0.753906 10.1749C0.753906 15.6932 4.963 20.1673 10.1545 20.1673C15.3459 20.1673 19.555 15.6932 19.555 10.1749C19.555 9.50486 19.4901 8.85086 19.3722 8.21783Z" fill="#FFC107"/>
<path d="M10.154 20.1672C12.5822 20.1672 14.7885 19.1794 16.4566 17.5732L13.5471 14.9561C12.5716 15.7447 11.3796 16.1712 10.154 16.1702C7.70891 16.1702 5.6328 14.513 4.85067 12.2002L1.78516 14.7108C3.34095 17.9469 6.50047 20.1672 10.154 20.1672Z" fill="#4CAF50"/>
<path d="M19.372 8.21798H18.6148V8.17651H10.1543V12.1735H15.467C15.0963 13.2809 14.4284 14.2485 13.546 14.9569L13.5474 14.9559L16.4569 17.5729C16.251 17.7718 19.5548 15.1713 19.5548 10.175C19.5548 9.50501 19.49 8.85101 19.372 8.21798Z" fill="#1976D2"/>
<path d="M1.83789 5.52386L4.92644 7.93155C5.76215 5.7322 7.78609 4.17937 10.1546 4.17937C11.5924 4.17937 12.9005 4.75593 13.8964 5.69773L16.5554 2.87135C14.8764 1.2081 12.6307 0.182373 10.1546 0.182373C6.5438 0.182373 3.41248 2.34924 1.83789 5.52386Z" fill="#FF3D00"/>
</svg>
