<svg xmlns="http://www.w3.org/2000/svg" xmlns:xlink="http://www.w3.org/1999/xlink" viewBox="0 0 432.36 418.34"><defs><style>.cls-1{fill:url(#Gradiente_sem_nome_37);}.cls-2{fill:url(#Gradiente_sem_nome_37-2);}.cls-3{fill:#fff;}</style><linearGradient id="Gradiente_sem_nome_37" x1="-78.26" y1="274.85" x2="354.1" y2="274.85" gradientUnits="userSpaceOnUse"><stop offset="0" stop-color="#058278"/><stop offset="1" stop-color="#1de56d"/></linearGradient><linearGradient id="Gradiente_sem_nome_37-2" x1="13.26" y1="68.16" x2="279.28" y2="68.16" xlink:href="#Gradiente_sem_nome_37"/></defs><g id="Camada_2" data-name="Camada 2"><g id="Camada_1-2" data-name="Camada 1"><path class="cls-1" d="M407.63,194.67c-24.07-68.86-91.37-63.19-91.37-63.19s-21.33-1.17-40.7,10.56S255.31,155,216.18,154.86h0c-39.13.1-40-1.08-59.38-12.82s-40.69-10.56-40.69-10.56S48.8,125.8,24.74,194.67C-7.35,320.67-.6,356,3.7,374.58S26.79,419.48,50,418.3s32.57-12.22,46.76-25.82,14.18-16.91,40.3-50.58c23-29.64,50-30.62,50-30.62h58.3s27,1,50,30.62c26.12,33.68,26.12,37,40.31,50.58s23.57,24.65,46.76,25.83,42-25.15,46.27-43.73S439.71,320.67,407.63,194.67Z"/><path class="cls-2" d="M160.49,115.63h20.38c9.53,4,17.38,9.87,22.63,17h0c3.64,4.93,13.19,4.93,16.83,0h0c5.26-7.13,13.1-13,22.63-17h27a50.19,50.19,0,0,0,50.2-50.19V50.19A50.19,50.19,0,0,0,270,0H160.49A50.19,50.19,0,0,0,110.3,50.19V65.44A50.19,50.19,0,0,0,160.49,115.63Z"/><circle class="cls-3" cx="166.7" cy="58.29" r="13.27"/><circle class="cls-3" cx="215.19" cy="58.29" r="13.27"/><circle class="cls-3" cx="263.68" cy="58.29" r="13.27"/><circle class="cls-3" cx="356.37" cy="234.19" r="17.54"/><circle class="cls-3" cx="280.36" cy="234.19" r="17.54"/><circle class="cls-3" cx="318.96" cy="196.18" r="17.54"/><circle class="cls-3" cx="318.96" cy="272.19" r="17.54"/><rect class="cls-3" x="100.06" y="183.08" width="32.09" height="101.1" rx="10.03"/><rect class="cls-3" x="100.06" y="183.64" width="32.09" height="101.1" rx="10.03" transform="translate(-118.08 350.29) rotate(-90)"/></g></g></svg>